<svg width="684.7" height="417.59999999999997" xmlns="http://www.w3.org/2000/svg" xml:space="preserve" version="1.1">

 <g>
  <title>Layer 1</title>
  <path id="svg_1" fill="#9FB2D9" clip-rule="evenodd" fill-rule="evenodd" d="m373.4,37.2c0.1,-0.5 -0.3,-1 -0.8,-1c-0.5,-0.1 -1,0.3 -1,0.8c0,0.1 0,0.1 0,0.2l0,2.2l-2.1,0c-0.5,0.1 -0.9,0.5 -0.8,1c0,0.4 0.4,0.8 0.8,0.8l2.1,0l0,2.2c0.1,0.5 0.5,0.9 1,0.8c0.4,0 0.8,-0.4 0.8,-0.8l0,-2.2l2.1,0c0.5,0.1 1,-0.3 1,-0.8c0.1,-0.5 -0.3,-1 -0.8,-1c-0.1,0 -0.1,0 -0.2,0l-2.1,0l0,-2.2z" class="st0"/>
  <path id="svg_2" fill="#E1E8F6" clip-rule="evenodd" fill-rule="evenodd" d="m142.3,291.7l-60,0c-32.4,0.1 -58.6,26.3 -58.7,58.7l0,0c0.1,32.4 26.3,58.6 58.7,58.7l507.4,0c52.3,0 95.1,-42.8 95.1,-95.1l0,0c0,-52.3 -42.8,-95.1 -95.1,-95.1l0,0c-22.2,-0.1 -40.1,-18 -40.2,-40.2l0,0c0.1,-22.2 18,-40.1 40.2,-40.2l48.3,0c23.1,-0.1 41.7,-18.7 41.8,-41.8l0,0c0,-23 -18.7,-41.6 -41.8,-41.7l-61.2,0c-9,0 -16.2,-7.3 -16.3,-16.3l0,0c0,-9 7.3,-16.2 16.3,-16.3l10.8,0c6.2,0 11.2,-5 11.2,-11.2l0,0c0,-6.2 -5,-11.2 -11.2,-11.2l-70.8,0c-14.9,0 -16.6,17.6 -54.2,17.6l-87.3,0c-8.1,0 -14.6,6.6 -14.6,14.7l0,0c0,8.1 6.6,14.6 14.6,14.7l14.1,0c11.7,0 21.2,9.5 21.2,21.2l0,0c0,11.7 -9.5,21.2 -21.2,21.2l-42.4,0c-57.2,0 -65.3,14.9 -75.3,44.7s-62,32.1 -62,32.1l-71.2,0c-17.7,0 -32,14.3 -32,32l0,0c0,17.7 14.3,32 32,32l3.7,0c17,0 30.7,13.8 30.8,30.8l0,0c0,16.9 -13.7,30.7 -30.7,30.7zm476.9,-269.2c-6.2,0 -11.2,-5 -11.2,-11.2c-0.1,-6.3 5,-11.3 11.2,-11.3c6.2,0 11.2,5 11.2,11.2c0,0 0,0 0,0c0,6.2 -5,11.3 -11.2,11.3z" class="st1"/>
  <path id="svg_3" fill="#9FB2D9" clip-rule="evenodd" fill-rule="evenodd" d="m214.2,351.8c0,0 -21.7,-11.2 -17.7,-38.6s-12.8,-36.1 -17.1,-44.3s5.3,-21.3 4.2,-32.9s-14.4,-14.6 -8.2,-30.4s1,-21.8 -7.2,-38.8s3.9,-42.8 9.7,-42.7s-1.3,6.2 3.8,17.5s26.5,14.7 33.2,24.1s-5.1,21.9 2.6,34.6s30.4,8.8 36.5,21.1s-8.3,27.1 -4.2,40.1c4.2,12.9 19.6,20.3 26,30.6s18.6,30.3 -1.2,54s-60.4,5.7 -60.4,5.7z" class="st0"/>
  <path id="svg_4" fill="#B4C5E6" clip-rule="evenodd" fill-rule="evenodd" d="m175.6,147.6c-0.2,-0.7 0.2,-1.5 0.9,-1.8c0.7,-0.2 1.4,0.1 1.7,0.8l89.7,232.9l-3.4,-0.9l-88.9,-231z" class="st2"/>
  <path id="svg_5" fill="#B4C5E6" clip-rule="evenodd" fill-rule="evenodd" d="m196.2,324c-0.1,-1.1 -0.2,-2.2 -0.2,-3.4l58.9,33.1l-5.2,-13.5c0,-0.1 0,-0.1 -0.1,-0.2l-2.7,-7l-49.9,-28c0,-1.1 0,-2.2 -0.1,-3.3l48.4,27.2l-4.7,-12.2l-46.1,-25.9c-0.6,-1.5 -1.2,-3 -2,-4.4l46.5,26.1l-2.3,-6.1c0,-0.1 -0.1,-0.1 -0.1,-0.2l-10.2,-26.6l-46.1,-25.9c0.3,-0.9 0.6,-1.8 0.8,-2.8l43.7,24.6l-5.1,-13.3l-36.3,-20.4c0.2,-1 0.3,-2 0.3,-3.1l34.4,19.4l-3.8,-10c0,0 0,-0.1 -0.1,-0.1l-11.2,-29l-27,-15.1c0.3,-0.9 0.6,-1.9 0.9,-2.7l24.5,13.8l-9.8,-25.3c0,0 0,-0.1 -0.1,-0.1l-16.1,-41.8c-0.2,-0.7 0.2,-1.5 0.9,-1.8c0.7,-0.2 1.4,0.1 1.7,0.8l14.6,38l8.4,-28.5c0.9,0.4 1.7,0.9 2.6,1.3l-9.2,31.6l11,28.5c0,0 0,0.1 0,0.1l10.2,26.4l16,-34.4c0.9,0.3 1.8,0.6 2.7,0.8l-17.3,37.1l3.9,10.1l21.1,-45c0.9,0.3 1.8,0.6 2.7,1l-22.1,47l0.3,0.2c0.7,0.4 0.9,1.2 0.5,1.9c0,0 0,0 0,0c-0.1,0.2 -0.3,0.4 -0.4,0.5l5.7,14.8c0,0 0,0.1 0.1,0.1l9.2,24l15.7,-33.3c0.6,0.8 1.3,1.7 2,2.5l-16.2,34.5l2.4,6.2l17.4,-37c0.7,0.7 1.4,1.4 2.2,2l-18.2,38.5l6.1,15.8l0,0.1l1.7,4.4l22.2,-47.3c0.7,0.8 1.3,1.6 1.9,2.5l-22.8,48.5l6.4,16.6c0,0 0,0.1 0,0.1l0,0c-1.1,0.4 -2.2,0.6 -3.4,0.9l-59.2,-33.3z" class="st2"/>
  <path id="svg_6" fill="#C0CDEA" clip-rule="evenodd" fill-rule="evenodd" d="m204.1,409.3c-6,-4.6 -12.1,-6.8 -15.3,-9.8c-6.5,-6 -2.1,-20.9 -6.8,-30.9s-17.7,-8.5 -17.1,-24.8s-6.2,-19.9 -19,-32.5s-10.2,-39.8 -5,-41.5s0.9,6 9,14.5s28.6,4.7 37.6,11s2.5,21.3 13.4,30.3s30.2,-1.9 39.6,7.3s1.2,27.1 9.1,37.4s24.1,11.9 33.3,19.2c5.2,4.1 12.9,10.3 16.9,19.9l-95.7,-0.1z" class="st3"/>
  <path id="svg_7" fill="#E1E8F6" clip-rule="evenodd" fill-rule="evenodd" d="m247.5,409.3l-13,-15.1l-49.8,-8.5c0,-0.9 -0.1,-1.8 -0.1,-2.8l47.2,8l-8.9,-10.3l-39.3,-6.7c-0.2,-1 -0.4,-1.9 -0.7,-2.9l37.2,6.3l-6.7,-7.8l-0.1,-0.1l-19.3,-22.3l-29.1,-5c0,-1 0,-1.9 -0.1,-2.8l26.5,4.5l-17,-19.6l-0.1,-0.1l-27.9,-32.4c-0.4,-0.6 -0.2,-1.5 0.4,-1.9c0.5,-0.3 1.1,-0.3 1.6,0.1l25.4,29.5l-1.7,-28.4l2.7,0.4l1.9,31.4l19.1,22.2l0.1,0.1l17.6,20.5l3.4,-36.1l2.7,-0.1l-3.6,39.1l6.7,7.8l4.6,-47.3c0.9,0 1.8,0 2.7,0l-4.8,49.4l0.4,0.1c0.7,0.1 1.2,0.8 1.1,1.5c0,0 0,0 0,0c0,0.2 -0.1,0.4 -0.2,0.6l9.9,11.5l0.1,0.1l14.8,17.2l-3.7,-0.1zm5,0l3.2,-33.6c0.8,0.6 1.7,1.1 2.5,1.6l-3.1,32l-2.6,0zm7.3,0l2.9,-29.8c0.9,0.4 1.7,0.8 2.6,1.1l-2.8,28.6l-2.7,0l0,0.1zm17.7,0l2.1,-22.2c0.9,0.5 1.7,1.1 2.5,1.6l-2,20.5l-2.6,0.1z" class="st1"/>
  <path id="svg_8" fill="#00000F" clip-rule="evenodd" fill-rule="evenodd" d="m22.9,417.6l-5.5,0c-2.3,0 -4.2,-1.8 -4.2,-4.1l0,0l0,0c0,-2.3 1.9,-4.1 4.1,-4.1l5.5,0c2.3,0 4.1,1.9 4.1,4.1l0,0c0.1,2.2 -1.7,4.1 -4,4.1z" class="st4"/>
  <path id="svg_9" fill="#00000F" clip-rule="evenodd" fill-rule="evenodd" d="m36.2,417.6l599.3,0c2.3,0 4.1,-1.9 4.1,-4.1l0,0c0,-2.3 -1.9,-4.1 -4.1,-4.1l-599.3,0c-2.3,0 -4.1,1.9 -4.1,4.1l0,0c-0.1,2.2 1.8,4.1 4.1,4.1z" class="st4"/>
  <path id="svg_10" fill="#C0CDEA" clip-rule="evenodd" fill-rule="evenodd" d="m634.2,203.2" class="st3"/>
  <path id="svg_11" fill="#9FB2D9" clip-rule="evenodd" fill-rule="evenodd" d="m662.7,229.2c0,-0.6 -0.5,-1.1 -1.1,-1.1s-1.1,0.5 -1.1,1.1l0,2.7l-2.7,0c-0.6,0 -1.1,0.5 -1.1,1.1c0,0.6 0.5,1.1 1.1,1.1c0,0 0,0 0,0l2.7,0l0,2.7c0,0.6 0.5,1.1 1.1,1.1s1.1,-0.5 1.1,-1.1l0,-2.7l2.7,0c0.6,0 1.1,-0.5 1.1,-1.1c0,-0.6 -0.5,-1.1 -1.1,-1.1l-2.7,0l0,-2.7z" class="st0"/>
  <path id="svg_12" fill="#00000F" clip-rule="evenodd" fill-rule="evenodd" d="m416.3,215.3l-68,0c-2.5,0 -4.5,2 -4.5,4.5l0,0c0,2.5 2,4.5 4.5,4.5l68,0c2.5,0 4.5,-2 4.5,-4.5l0,0c0,-2.5 -2,-4.5 -4.5,-4.5z" class="st4"/>
  <path id="svg_13" fill="#3B405F" clip-rule="evenodd" fill-rule="evenodd" d="m414,183.3l-31.5,0c-0.3,0 -0.5,0.2 -0.5,0.5l-5.6,40c0,0.2 0.1,0.4 0.3,0.5c0,0 0.1,0 0.1,0l43,0c0.2,0 0.4,-0.2 0.4,-0.4c0,0 0,-0.1 0,-0.1l-5.6,-40c-0.2,-0.3 -0.4,-0.5 -0.6,-0.5z" class="st5"/>
  <path id="svg_14" fill="#3B405F" clip-rule="evenodd" fill-rule="evenodd" d="m432.8,215.3l-68,0c-2.5,0 -4.5,2 -4.5,4.5l0,0c0,2.5 2,4.5 4.5,4.5l68,0c2.5,0 4.5,-2 4.5,-4.5l0,0c0,-2.5 -2,-4.5 -4.5,-4.5z" class="st5"/>
  <path id="svg_15" fill="#00000F" d="m316.3,95.1l150.8,0c1.3,0 2.3,1 2.3,2.3l0,100.8c0,1.3 -1,2.3 -2.3,2.3l-150.8,0c-1.3,0 -2.3,-1 -2.3,-2.3l0,0l0,-100.8c-0.1,-1.3 1,-2.3 2.3,-2.3c0,0 0,0 0,0z" class="st6"/>
  <path id="svg_16" fill="#3B405F" d="m323.6,95.1l150.8,0c1.3,0 2.3,1 2.3,2.3l0,0l0,100.9c0,1.3 -1,2.3 -2.3,2.3l-150.8,0c-1.3,0 -2.3,-1 -2.3,-2.3l0,-100.9c0,-1.3 1.1,-2.3 2.3,-2.3z" class="st7"/>
  <path id="svg_17" fill="#101537" clip-rule="evenodd" fill-rule="evenodd" d="m473.2,96.6l-148.3,0c-0.8,0 -1.5,0.7 -1.5,1.5l0,90.9c0,0.6 0.4,1 1,1l149.4,0c0.6,0 1,-0.4 1,-1l0,-90.9c0,-0.8 -0.7,-1.5 -1.6,-1.5c0,0 0,0 0,0z" class="st8"/>
  <rect id="svg_18" fill="#F8BD7A" height="84.7" width="142.6" class="st9" y="100.9" x="327.7"/>
  <path id="svg_19" fill="#101537" clip-rule="evenodd" fill-rule="evenodd" d="m385.8,204.7l-1.5,10.6l-6.8,0l2.1,-14.7l37.3,0l0.5,3.7l-31,0c-0.3,-0.1 -0.5,0.1 -0.6,0.4z" class="st8"/>
  <rect id="svg_20" fill="#FFFFFF" height="4.9" width="143.1" class="st10" y="100.9" x="327.7"/>
  <rect id="svg_21" fill="#E4E1E8" height="2.8" width="36" class="st11" y="102" x="328.6"/>
  <path id="svg_22" fill="#D64C47" clip-rule="evenodd" fill-rule="evenodd" d="m362.8,104c0.3,0 0.6,-0.3 0.6,-0.6s-0.3,-0.6 -0.6,-0.6c-0.3,0 -0.6,0.3 -0.6,0.6c0,0 0,0 0,0c0,0.3 0.3,0.6 0.6,0.6z" class="st12"/>
  <path id="svg_23" fill="#D64C47" clip-rule="evenodd" fill-rule="evenodd" d="m361,104c0.3,0 0.6,-0.3 0.6,-0.6s-0.3,-0.6 -0.6,-0.6c-0.3,0 -0.6,0.3 -0.6,0.6c0,0 0,0 0,0c0,0.3 0.2,0.6 0.6,0.6z" class="st12"/>
  <path id="svg_24" fill="#D64C47" clip-rule="evenodd" fill-rule="evenodd" d="m359.1,104c0.3,0 0.6,-0.3 0.6,-0.6c0,-0.3 -0.3,-0.6 -0.6,-0.6c-0.3,0 -0.6,0.3 -0.6,0.6c0,0 0,0 0,0c0,0.3 0.3,0.6 0.6,0.6z" class="st12"/>
  <rect id="svg_25" fill="#E4E1E8" height="2.8" width="36" class="st11" y="102" x="366.3"/>
  <path id="svg_26" fill="#D64C47" clip-rule="evenodd" fill-rule="evenodd" d="m400.5,104c0.3,0 0.6,-0.4 0.5,-0.7c0,-0.3 -0.3,-0.5 -0.5,-0.5c-0.3,0 -0.7,0.2 -0.7,0.5c0,0.3 0.2,0.7 0.5,0.7c0.1,0 0.1,0 0.2,0z" class="st12"/>
  <path id="svg_27" fill="#D64C47" clip-rule="evenodd" fill-rule="evenodd" d="m398.6,104c0.3,0 0.6,-0.4 0.5,-0.7c0,-0.3 -0.3,-0.5 -0.5,-0.5c-0.3,0 -0.7,0.2 -0.7,0.5c0,0.3 0.2,0.7 0.5,0.7c0.1,0 0.2,0 0.2,0z" class="st12"/>
  <path id="svg_28" fill="#D64C47" clip-rule="evenodd" fill-rule="evenodd" d="m396.8,104c0.3,0 0.6,-0.3 0.6,-0.6s-0.3,-0.6 -0.6,-0.6c-0.3,0 -0.6,0.3 -0.6,0.6c0,0 0,0 0,0c-0.1,0.3 0.2,0.6 0.6,0.6z" class="st12"/>
  <path id="svg_29" fill="#FFFFFF" clip-rule="evenodd" fill-rule="evenodd" d="m348.2,175.7l101.7,0c0.4,0 0.8,0.3 0.8,0.8l0,0c0,0.4 -0.3,0.8 -0.8,0.8l-101.7,0c-0.4,0 -0.8,-0.3 -0.8,-0.8l0,0c0,-0.5 0.4,-0.8 0.8,-0.8z" class="st13"/>
  <path id="svg_31" fill="#101537" clip-rule="evenodd" fill-rule="evenodd" d="m398,210.8l88.4,0c5,0 9,4 9,9l0,0c0,5 -4,9 -9,9l-88.4,0c-5,0 -9,-4 -9,-9l0,0c0,-5 4,-9 9,-9z" class="st8"/>
  <path id="svg_32" fill="#070725" clip-rule="evenodd" fill-rule="evenodd" d="m381.1,210.8l41,0c5,0 9,4 9,9l0,0c0,5 -4,9 -9,9l-41,0c-5,0 -9,-4 -9,-9l0,0c0,-5 4,-9 9,-9z" class="st16"/>
  <path id="svg_33" fill="#101537" d="m335.4,225.5l274.2,0c2.8,0 5,2.3 5,5l0,23.5c0,2.8 -2.3,5 -5,5l-274.2,0c-2.8,0 -5,-2.3 -5,-5l0,-23.5c0,-2.8 2.3,-5 5,-5z" class="st17"/>
  <path id="svg_34" fill="#00000F" clip-rule="evenodd" fill-rule="evenodd" d="m335.3,225.5l274.5,0c2.7,0.1 4.9,2.3 4.9,5l0,9.2c0,2.7 -2.2,4.9 -4.9,5l-274.5,0c-2.7,-0.1 -4.9,-2.3 -4.9,-5l0,-9.2c0,-2.7 2.2,-5 4.9,-5z" class="st4"/>
  <path id="svg_35" fill="#00000F" d="m260.1,225.9l75.9,0c2.9,0 5.2,2.3 5.2,5.2l0,172.8c0,2.9 -2.3,5.2 -5.2,5.2l-75.9,0c-2.9,0 -5.2,-2.3 -5.2,-5.2l0,-172.8c0,-2.9 2.3,-5.2 5.2,-5.2z" class="st6"/>
  <path id="svg_36" fill="#101537" d="m335,225.9l67.9,0c2.6,0 4.7,2.1 4.7,4.7l0,173.9c0,2.6 -2.1,4.7 -4.7,4.7l-67.9,0c-2.6,0 -4.7,-2.1 -4.7,-4.7l0,-173.9c0.1,-2.6 2.1,-4.7 4.7,-4.7z" class="st17"/>
  <path id="svg_37" fill="#D58750" d="m332.1,219.8l294.3,0c0.9,0 1.7,0.8 1.7,1.7l0,8c0,0.9 -0.8,1.7 -1.7,1.7l-294.3,0c-0.9,0 -1.7,-0.8 -1.7,-1.7l0,-8c0,-1 0.8,-1.7 1.7,-1.7z" class="st18"/>
  <path id="svg_38" fill="#B56B41" d="m247.7,219.8l84,0c0.9,0 1.7,0.8 1.7,1.7l0,8c0,0.9 -0.8,1.7 -1.7,1.7l-84,0c-0.9,0 -1.7,-0.8 -1.7,-1.7l0,-8c0,-1 0.8,-1.7 1.7,-1.7z" class="st19"/>
  <path id="svg_39" fill="#FFFFFF" d="m340,237l57.9,0c2.1,0 3.9,1.7 3.9,3.9l0,44.9c0,2.1 -1.7,3.9 -3.9,3.9l-57.9,0c-2.1,0 -3.9,-1.7 -3.9,-3.9l0,-44.9c0,-2.2 1.8,-3.9 3.9,-3.9z" class="st10"/>
  <path id="svg_40" fill="#E4E1E8" clip-rule="evenodd" fill-rule="evenodd" d="m401.8,286.3l-57.1,0c-1.5,0 -2.8,-0.8 -3.5,-2.2c-0.3,-0.5 -0.4,-1.1 -0.4,-1.7l0,-44.9c0,-0.2 0,-0.4 0,-0.6l-0.8,0c-2.1,0 -3.9,1.7 -3.9,3.9l0,44.9c0,2.1 1.7,3.9 3.9,3.9l57.9,0c1.9,0 3.6,-1.4 3.9,-3.3z" class="st20"/>
  <path id="svg_41" fill="#070725" d="m355,240.1l28,0c0.8,0 1.5,0.7 1.5,1.5l0,0.5c0,0.8 -0.7,1.5 -1.5,1.5l-28,0c-0.8,0 -1.5,-0.7 -1.5,-1.5l0,-0.5c0,-0.9 0.7,-1.5 1.5,-1.5z" class="st21"/>
  <path id="svg_42" fill="#FFFFFF" d="m340,292.4l57.9,0c2.1,0 3.9,1.7 3.9,3.9l0,44.9c0,2.1 -1.7,3.9 -3.9,3.9l-57.9,0c-2.1,0 -3.9,-1.7 -3.9,-3.9l0,-44.9c0,-2.1 1.8,-3.9 3.9,-3.9z" class="st10"/>
  <path id="svg_43" fill="#E4E1E8" clip-rule="evenodd" fill-rule="evenodd" d="m401.8,341.8l-57.1,0c-1.5,0 -2.8,-0.8 -3.5,-2.2c-0.3,-0.5 -0.4,-1.1 -0.4,-1.7l0,-44.9c0,-0.2 0,-0.4 0,-0.6l-0.8,0c-2.1,0 -3.9,1.7 -3.9,3.9l0,44.9c0,2.1 1.7,3.9 3.9,3.9l57.9,0c2,0 3.6,-1.4 3.9,-3.3z" class="st20"/>
  <path id="svg_44" fill="#070725" d="m355,295.5l28,0c0.8,0 1.5,0.7 1.5,1.5l0,0.5c0,0.8 -0.7,1.5 -1.5,1.5l-28,0c-0.8,0 -1.5,-0.7 -1.5,-1.5l0,-0.5c0,-0.8 0.7,-1.5 1.5,-1.5z" class="st21"/>
  <path id="svg_45" fill="#FFFFFF" d="m340,347.9l57.9,0c2.1,0 3.9,1.7 3.9,3.9l0,44.9c0,2.1 -1.7,3.9 -3.9,3.9l-57.9,0c-2.1,0 -3.9,-1.7 -3.9,-3.9l0,-44.9c0,-2.2 1.8,-3.9 3.9,-3.9z" class="st10"/>
  <path id="svg_46" fill="#E4E1E8" clip-rule="evenodd" fill-rule="evenodd" d="m401.8,397.2l-57.1,0c-1.5,0 -2.8,-0.8 -3.5,-2.2c-0.3,-0.5 -0.4,-1.1 -0.4,-1.7l0,-44.9c0,-0.2 0,-0.4 0,-0.6l-0.8,0c-2.1,0 -3.9,1.8 -3.9,3.9l0,44.9c0,2.1 1.7,3.9 3.9,3.9l57.9,0c2,0 3.6,-1.4 3.9,-3.3z" class="st20"/>
  <path id="svg_47" fill="#070725" d="m355,351l28,0c0.8,0 1.5,0.7 1.5,1.5l0,0.5c0,0.8 -0.7,1.5 -1.5,1.5l-28,0c-0.8,0 -1.5,-0.7 -1.5,-1.5l0,-0.5c0,-0.9 0.7,-1.5 1.5,-1.5z" class="st21"/>
  <path id="svg_48" fill="#AEABBA" d="m558.1,225.9l10.5,0c0.3,0 0.5,0.2 0.5,0.5l0,184.5c0,0.3 -0.2,0.5 -0.5,0.5l-10.5,0c-0.3,0 -0.5,-0.2 -0.5,-0.5l0,-184.5c0.1,-0.3 0.3,-0.5 0.5,-0.5z" class="st22"/>
  <path id="svg_49" fill="#FFFFFF" d="m565.2,225.9l3.3,0c1.3,0 2.3,1 2.3,2.3l0,180.8c0,1.3 -1,2.3 -2.3,2.3l-3.3,0c-1.3,0 -2.3,-1 -2.3,-2.3l0,-180.8c0,-1.3 1,-2.3 2.3,-2.3z" class="st10"/>
  <path id="svg_50" fill="#AEABBA" d="m607.2,225.9l10.5,0c0.3,0 0.5,0.2 0.5,0.5l0,184.5c0,0.3 -0.2,0.5 -0.5,0.5l-10.5,0c-0.3,0 -0.5,-0.2 -0.5,-0.5l0,-184.5c0,-0.3 0.2,-0.5 0.5,-0.5z" class="st22"/>
  <path id="svg_51" fill="#FFFFFF" d="m614.3,225.9l3.3,0c1.3,0 2.3,1 2.3,2.3l0,180.8c0,1.3 -1,2.3 -2.3,2.3l-3.3,0c-1.3,0 -2.3,-1 -2.3,-2.3l0,-180.8c-0.1,-1.3 1,-2.3 2.3,-2.3z" class="st10"/>
  <path id="svg_52" fill="#B56B41" clip-rule="evenodd" fill-rule="evenodd" d="m455.5,219.8l170.9,0c0.9,0 1.7,0.8 1.7,1.7l0,8c0,0.9 -0.8,1.7 -1.7,1.7l-159.7,0c-3.3,-4.3 -7,-8.1 -11.2,-11.4z" class="st23"/>
  <path id="svg_53" fill="#ED7862" clip-rule="evenodd" fill-rule="evenodd" d="m517.6,170.2l2.2,3.6c0,0 0.8,4.4 -0.4,7.3s14.2,6.2 14.2,6.2l12,-9.7l2.7,-3.3c0,0 -5.6,-6.1 -6,-8.8s-24.7,4.7 -24.7,4.7z" class="st24"/>
  <path id="svg_54" fill="#F5AC83" clip-rule="evenodd" fill-rule="evenodd" d="m490.9,204.5c0,0 -8.1,6.5 -10.9,7s-15.1,-5.2 -17.6,-5.8s-8,-0.7 -11.9,-0.7s-8,1.5 -10.1,5.8l8.3,0c2.2,0 9.8,6.1 17,11.1s13.1,9.1 17.9,8.6s21.4,-12.9 21.4,-12.9l-14.1,-13.1z" class="st25"/>
  <path id="svg_55" fill="#ED7862" clip-rule="evenodd" fill-rule="evenodd" d="m465.6,221.9c7.3,5 13.1,9.1 17.9,8.6s21.4,-12.9 21.4,-12.9l-14,-13.1c0,0 -1.9,1.5 -4.1,3.1c5.9,9.4 3.2,13.4 -3.7,16.2c-5.5,2.2 -19.6,-5.5 -28.5,-9.8c3.1,2.2 7.1,5.2 11,7.9z" class="st24"/>
  <path id="svg_56" fill="#070725" clip-rule="evenodd" fill-rule="evenodd" d="m557,280.9c0,0 -41.9,-0.4 -47,0.1c-5.1,0.5 -10.2,5.9 -9.3,14.3s12.6,74 12.6,74c0.5,0.4 1.1,0.6 1.7,0.8c0.9,0.2 8.4,1.4 8.4,1.4l0.5,-6.1l-4.4,-63.8l38.6,-7l-1.1,-13.7z" class="st16"/>
  <path id="svg_57" fill="#D64C47" clip-rule="evenodd" fill-rule="evenodd" d="m523.9,365.4c0.6,0.2 1.1,0.7 1.3,1.4c0.6,3.1 1,6.2 1.1,9.4c-0.1,1 -2.7,3 -7.1,4.9s-21.2,6.8 -21.2,6.8l-0.2,-0.6c-0.5,-0.3 -0.9,-0.8 -1.1,-1.4c-0.4,-1.6 -0.1,-3.2 0.7,-4.6c0.9,-1.3 6.3,-5 7.3,-5.8s5.9,-7.6 6.3,-8.1c1.7,-1.4 4.2,-1.6 6.1,-0.4c3,1.6 6.5,1 6.8,-1.6z" class="st12"/>
  <path id="svg_58" fill="#FFFFFF" clip-rule="evenodd" fill-rule="evenodd" d="m497.7,387.2c0,0 16.8,-6.2 20.5,-7.5c2.9,-1.2 5.6,-2.8 8,-4.8c0.3,0.2 0.6,0.4 0.7,0.8c0.1,0.5 0.2,2.2 0.3,2.6c0,1.2 -0.8,2.4 -1.9,2.8c-1.8,0.8 -25.3,9 -26.4,9.4s-1.5,-2.5 -1.5,-2.5s-0.1,-0.6 0.3,-0.8z" class="st13"/>
  <path id="svg_59" fill="#181D3B" clip-rule="evenodd" fill-rule="evenodd" d="m582.9,254.9c0,0 -111.9,12.9 -118,14.3s-11.3,8.6 -8.9,18.5s27.4,89.7 27.4,89.7c0.7,0.4 1.4,0.6 2.1,0.7c1.1,0.1 10.3,0.4 10.3,0.4l3.6,-3.7l-20,-71.2l81.8,-4.1c22.9,-3.8 26,-31.7 21.7,-44.6z" class="st26"/>
  <path id="svg_60" fill="#F8BD7A" clip-rule="evenodd" fill-rule="evenodd" d="m504.2,263.4c0,0 8.9,6.6 14.3,4.5s31.2,-46.8 31.2,-46.8l-12.4,-44.7c-6.1,0.4 -12.2,1.2 -18.1,2.5l-1.9,1.7c0,0 -7.3,1.2 -11.4,5.9s-17.7,16.7 -18.2,17.7s11.8,14.6 15,16.7c0.8,0.3 1.7,0.1 2.4,-0.4l1.5,-1.2c0,0 3.3,17.2 3.3,22.4l0,5.1c0,0 -1.7,13.2 -3.1,14.4s-2.6,2.2 -2.6,2.2z" class="st27"/>
  <path id="svg_61" fill="#FFFFFF" clip-rule="evenodd" fill-rule="evenodd" d="m544.2,271.9c2.1,0 3.8,-1.7 3.8,-3.8s-1.7,-3.8 -3.8,-3.8l-33.1,0c-7.7,-0.1 -14.3,-5.4 -16,-12.9c-2.4,1 -4.7,2.1 -6.9,3.3c3.1,10.1 12.4,17 22.9,17.1l33.1,0l0,0.1z" class="st13"/>
  <rect id="svg_62" fill="#070725" height="78.2" width="9.5" class="st21" y="301.6" x="544.4"/>
  <rect id="svg_63" fill="#00000F" height="21.2" width="9.3" class="st6" y="275.4" x="531.7"/>
  <rect id="svg_64" fill="#00000F" height="21.2" width="9.3" class="st6" y="275.4" x="595.8"/>
  <path id="svg_65" fill="#3B405F" d="m544.4,299.8l9.5,0c3,0 5.5,2.5 5.5,5.5c0,0 0,0 0,0l0,10.2c0,3 -2.5,5.5 -5.5,5.5l0,0l-9.5,0c-3,0 -5.5,-2.5 -5.5,-5.5c0,0 0,0 0,0l0,-10.2c0,-3 2.4,-5.5 5.5,-5.5z" class="st7"/>
  <path id="svg_66" fill="#070725" d="m536.8,298.1l24.6,0c0.9,0 1.6,0.7 1.6,1.6l0,12.8c0,0.9 -0.7,1.6 -1.6,1.6l-24.6,0c-0.9,0 -1.6,-0.7 -1.6,-1.6l0,-12.8c0,-0.9 0.7,-1.6 1.6,-1.6z" class="st21"/>
  <path id="svg_67" fill="#EE5050" d="m476.1,292.1l77.1,0c2.9,0 5.3,2.4 5.3,5.3l0,6c0,2.9 -2.4,5.3 -5.3,5.3l-77.1,0c-2.9,0 -5.3,-2.4 -5.3,-5.3l0,-6c0,-3 2.4,-5.3 5.3,-5.3z" class="st28"/>
  <path id="svg_68" fill="#D95050" d="m532.2,292.1l77.1,0c2.9,0 5.3,2.4 5.3,5.3l0,6c0,2.9 -2.4,5.3 -5.3,5.3l-77.1,0c-2.9,0 -5.3,-2.4 -5.3,-5.3l0,-6c0,-2.9 2.4,-5.3 5.3,-5.3z" class="st29"/>
  <path id="svg_69" fill="#3B405F" d="m544.4,374.8l9.5,0c3,0 5.5,2.5 5.5,5.5c0,0 0,0 0,0l0,10.2c0,3 -2.5,5.5 -5.5,5.5l0,0l-9.5,0c-3,0 -5.5,-2.5 -5.5,-5.5l0,0l0,-10.2c0,-3 2.4,-5.5 5.5,-5.5z" class="st7"/>
  <path id="svg_70" fill="#070725" d="m537.5,384.9l23.2,0c1.3,0 2.3,1 2.3,2.3l0,18.5c0,1.3 -1,2.3 -2.3,2.3l-23.2,0c-1.3,0 -2.3,-1 -2.3,-2.3l0,-18.5c0,-1.3 1,-2.3 2.3,-2.3z" class="st21"/>
  <path id="svg_71" fill="#707386" clip-rule="evenodd" fill-rule="evenodd" d="m574.4,402.3l0,0c0,3.8 -3.1,6.8 -6.8,6.8l-36.8,0c-3.8,0 -6.8,-3.1 -6.8,-6.8l0,0c0,-3.8 3.1,-6.8 6.8,-6.8l36.8,0c3.7,0 6.7,3 6.8,6.8z" class="st30"/>
  <path id="svg_72" fill="#101537" clip-rule="evenodd" fill-rule="evenodd" d="m610.2,409.1l0,0c0,3.8 -3.1,6.8 -6.8,6.8l-93.6,0c-3.8,0 -6.8,-3.1 -6.8,-6.8l0,0c0,-3.8 3.1,-6.8 6.8,-6.8l93.6,0c3.7,0 6.8,3 6.8,6.8z" class="st8"/>
  <path id="svg_73" fill="#00000F" clip-rule="evenodd" fill-rule="evenodd" d="m551.6,409.1l0,0c0,3.8 -3.1,6.8 -6.8,6.8l-49.9,0c-3.8,0 -6.8,-3.1 -6.8,-6.8l0,0c0,-3.8 3.1,-6.8 6.8,-6.8l49.9,0c3.7,0 6.8,3 6.8,6.8z" class="st4"/>
  <path id="svg_74" fill="#FFFFFF" clip-rule="evenodd" fill-rule="evenodd" d="m530.3,246.8c2.1,-0.1 3.8,1.5 3.9,3.6c0.1,2.1 -1.5,3.8 -3.6,3.9c-0.1,0 -0.3,0 -0.4,0l-33.1,0c-9.1,0 -16.4,7.4 -16.4,16.4l0,29.8c0.1,2.1 -1.5,3.8 -3.6,3.9c-2.1,0.1 -3.8,-1.5 -3.9,-3.6c0,-0.1 0,-0.3 0,-0.4l0,-29.8c0,-13.2 10.7,-23.9 24,-24l33.1,0l0,0.2z" class="st13"/>
  <path id="svg_75" fill="#EE5050" clip-rule="evenodd" fill-rule="evenodd" d="m603.7,206.8c-0.1,-22.7 -18.4,-41.1 -41.1,-41.1l-5.5,0c-22.7,0.1 -41.1,18.4 -41.1,41.1l0,61.2c0,5.8 4.7,10.5 10.6,10.6l66.6,0c5.8,0 10.5,-4.7 10.6,-10.6l0,-61.2l-0.1,0z" class="st31"/>
  <path id="svg_76" fill="#D95050" clip-rule="evenodd" fill-rule="evenodd" d="m614.7,206.8c-0.1,-22.7 -18.4,-41.1 -41.1,-41.1l-5.5,0c-22.7,0.1 -41.1,18.4 -41.1,41.1l0,61.2c0,5.8 4.7,10.6 10.6,10.6l66.6,0c5.8,0 10.5,-4.7 10.6,-10.6l0,-61.2l-0.1,0z" class="st32"/>
  <path id="svg_77" fill="#D64C47" clip-rule="evenodd" fill-rule="evenodd" d="m498.5,371.9c0.9,0 1.8,0.5 2.3,1.2c0.9,1.2 4.1,9.5 4.3,10.7s-3.3,4.4 -9.7,7.9s-31.2,14.5 -31.2,14.5l-0.5,-0.7c-0.8,-0.1 -1.6,-0.6 -2.1,-1.3c-1,-1.7 -1.1,-3.9 -0.2,-5.7c1.1,-1.8 8.5,-7.9 9.9,-9.1s7.1,-10.8 7.6,-11.5s4.1,-3.4 9.4,-2.3s10.5,-0.6 10.2,-3.7z" class="st12"/>
  <path id="svg_78" fill="#FFFFFF" clip-rule="evenodd" fill-rule="evenodd" d="m463.8,405.6c0,0 24.5,-12.4 29.8,-15c5.4,-2.6 11.2,-8.1 11.2,-8.1s1,0.1 1.3,0.7c0.4,1 0.8,1.9 1.1,2.9c0.2,0.4 0.4,2.4 -2.2,3.9s-36.9,18.3 -38.5,19s-3,-2.5 -3,-2.5s-0.3,-0.6 0.3,-0.9z" class="st13"/>
  <path id="svg_79" fill="#F5AC83" clip-rule="evenodd" fill-rule="evenodd" d="m510.5,119.8l4,-0.9c9.5,-2.2 19,3.7 21.3,13.2l4.4,19c2.2,9.5 -3.7,19 -13.2,21.3l-4,0.9c-9.5,2.2 -19,-3.7 -21.3,-13.2l-4.4,-19c-2.3,-9.5 3.6,-19 13.2,-21.3z" class="st25"/>
  <path id="svg_80" fill="#ED7862" clip-rule="evenodd" fill-rule="evenodd" d="m536.3,134.3l3.9,16.8c2.2,9.5 -3.7,19 -13.2,21.3l-4,0.9c-3.8,0.9 -7.8,0.5 -11.3,-1.1c0.5,0.2 3.8,1.5 4.6,-1c0.8,-2.7 -3.8,-11.2 -3.8,-11.2c-0.2,-0.4 -0.1,-0.8 0.1,-1.1c1.9,-3.3 2.5,-7.1 1.8,-10.9c-1.1,-5.7 6.2,-9.7 6.2,-9.7l-17.1,4.6l0,3.5c-1.2,-2.3 -3.5,-3.9 -6.1,-4.3l-0.2,-1c-1,-4.3 -0.4,-8.8 1.8,-12.7c5.7,0.7 24.3,3.1 37.3,5.9z" class="st24"/>
  <path id="svg_81" fill="#101537" clip-rule="evenodd" fill-rule="evenodd" d="m504.7,151.7c0,0 -1.5,-0.2 -2.1,-2.4s-0.7,-2.9 -0.7,-2.9c-1.3,-1.9 -2.2,-4.1 -2.6,-6.4c0,0 -10.1,-1.4 -12.1,-10.8s6.7,-19.2 8,-20.2s6.7,-2.8 13.4,0.2c0,0 1.2,0.7 3.4,-0.2c2.2,-0.9 14.6,-4.4 20.6,-4.6s9.8,6 12.7,13.5c0.3,-1.8 1.6,-3.3 3.4,-3.7c3,-0.6 1.4,5 -0.8,7c0,0 5.1,2.7 6.1,8.1c1,5.5 -0.9,29.8 -5.5,34.6s-16.2,6.9 -19.9,7.8s-11,-3 -14,-13.1c0,0 1.5,-5.1 0.2,-9.2s-2.3,-7.2 -3.9,-7.8c-1.6,-0.5 -5.4,3.5 -5.7,5.3c-0.1,1.4 0,2.9 0.4,4.3c-0.2,0.4 -0.6,0.5 -0.9,0.5z" class="st8"/>
  <path id="svg_82" fill="#070725" clip-rule="evenodd" fill-rule="evenodd" d="m504.7,151.7c0,0 -1.5,-0.2 -2.1,-2.4s-0.7,-2.9 -0.7,-2.9c-1.3,-1.9 -2.2,-4.1 -2.6,-6.4c0,0 -10.1,-1.4 -12.1,-10.8s6.7,-19.2 8,-20.2c0,0 -9.5,10.4 1,15.7c10.5,5.3 26,8.7 36.2,8.1s17.4,-18.3 17.4,-18.3c1.2,1.1 -0.2,5.2 -2,6.7c0,0 5.1,2.7 6.1,8.1c1,5.5 -0.9,29.8 -5.5,34.6s-16.2,6.9 -19.9,7.8s-11,-3 -14,-13.1c0,0 1.5,-5.1 0.2,-9.2s-2.3,-7.2 -3.9,-7.8c-1.6,-0.5 -5.4,3.5 -5.7,5.3c-0.1,1.4 0,2.9 0.4,4.3c-0.1,0.4 -0.4,0.5 -0.8,0.5z" class="st16"/>
  <path id="svg_83" fill="#9FB2D9" clip-rule="evenodd" fill-rule="evenodd" d="m644.6,306.8c0,-0.6 -0.5,-1.1 -1.1,-1.1s-1.1,0.5 -1.1,1.1l0,2.7l-2.7,0c-0.6,0.1 -1.1,0.6 -1,1.3c0.1,0.6 0.5,1 1,1l2.7,0l0,2.7c0,0.6 0.5,1.1 1.1,1.1s1.1,-0.5 1.1,-1.1l0,-2.7l2.7,0c0.6,0.1 1.2,-0.4 1.3,-1c0.1,-0.6 -0.4,-1.2 -1,-1.3c-0.1,0 -0.1,0 -0.2,0l-2.7,0l0,-2.7l-0.1,0z" class="st0"/>
  <path id="svg_84" fill="#9FB2D9" clip-rule="evenodd" fill-rule="evenodd" d="m576.1,70.3c0.1,-0.6 -0.4,-1.2 -1,-1.3c-0.6,-0.1 -1.2,0.4 -1.3,1c0,0.1 0,0.1 0,0.2l0,2.8l-2.7,0c-0.6,0 -1.1,0.5 -1.1,1.1c0,0.6 0.5,1.1 1.1,1.1c0,0 0,0 0,0l2.7,0l0,2.8c0.1,0.6 0.6,1.1 1.3,1c0.6,-0.1 1,-0.5 1,-1l0,-2.7l2.7,0c0.6,0 1.1,-0.5 1.1,-1.1c0,-0.6 -0.5,-1.1 -1.1,-1.1l-2.7,0l0,-2.8z" class="st0"/>
  <path id="svg_85" fill="#9FB2D9" clip-rule="evenodd" fill-rule="evenodd" d="m446.9,27.6c0,-0.6 -0.5,-1.1 -1.1,-1.1c-0.6,0 -1.1,0.5 -1.1,1.1l0,2.7l-2.7,0c-0.6,0 -1.1,0.5 -1.1,1.1c0,0.6 0.5,1.1 1.1,1.1c0,0 0,0 0,0l2.7,0l0,2.7c0,0.6 0.5,1.1 1.1,1.1c0.6,0 1.1,-0.5 1.1,-1.1c0,0 0,0 0,0l0,-2.7l2.7,0c0.6,0 1.1,-0.5 1.1,-1.1c0,-0.6 -0.5,-1.1 -1.1,-1.1l-2.7,0l0,-2.7z" class="st0"/>
  <path id="svg_86" fill="#9FB2D9" clip-rule="evenodd" fill-rule="evenodd" d="m127.6,255.1c-0.1,-0.6 -0.6,-1.1 -1.3,-1c-0.6,0.1 -1,0.5 -1,1l0,2.7l-2.7,0c-0.6,0.1 -1.1,0.6 -1,1.3c0.1,0.6 0.5,1 1,1l2.6,0l0,2.7c0.1,0.6 0.6,1.1 1.3,1c0.6,-0.1 1,-0.5 1,-1l0,-2.7l2.7,0c0.6,-0.1 1.1,-0.6 1,-1.3c-0.1,-0.6 -0.5,-1 -1,-1l-2.7,0l0.1,-2.7z" class="st0"/>
  <path id="svg_87" fill="#9FB2D9" clip-rule="evenodd" fill-rule="evenodd" d="m238.8,107.8c0,-0.6 -0.5,-1.1 -1.1,-1.1c-0.6,0 -1.1,0.5 -1.1,1.1c0,0 0,0 0,0l0,2.7l-2.7,0c-0.6,0 -1.1,0.5 -1.1,1.1c0,0.6 0.5,1.1 1.1,1.1c0,0 0,0 0,0l2.7,0l0,2.7c0,0.6 0.5,1.1 1.1,1.1c0.6,0 1.1,-0.5 1.1,-1.1c0,0 0,0 0,0l0,-2.7l2.7,0c0.6,0 1.1,-0.5 1.1,-1.1c0,-0.6 -0.5,-1.1 -1.1,-1.1c0,0 0,0 0,0l-2.7,0l0,-2.7z" class="st0"/>
  <path id="svg_88" fill="#9FB2D9" clip-rule="evenodd" fill-rule="evenodd" d="m108.2,363.7c0,-0.6 -0.5,-1.1 -1.1,-1.1c-0.6,0 -1.1,0.5 -1.1,1.1l0,2.7l-2.7,0c-0.6,0.1 -1.1,0.6 -1,1.3c0.1,0.6 0.5,1 1,1l2.7,0l0,2.7c0,0.6 0.5,1.1 1.1,1.1c0.6,0 1.1,-0.5 1.1,-1.1l0,-2.7l2.7,0c0.6,-0.1 1.1,-0.6 1,-1.3c-0.1,-0.6 -0.5,-1 -1,-1l-2.7,0l0,-2.7z" class="st0"/>
  <path id="svg_89" fill="#9FB2D9" clip-rule="evenodd" fill-rule="evenodd" d="m6.1,281c0,-0.6 -0.5,-1.1 -1.1,-1.1c-0.6,0 -1.1,0.5 -1.1,1.1l0,2.7l-2.8,0c-0.6,-0.1 -1.2,0.4 -1.3,1c-0.1,0.6 0.4,1.2 1,1.3c0.1,0 0.1,0 0.2,0l2.7,0l0,2.7c0,0.6 0.5,1.1 1.1,1.1c0.6,0 1.1,-0.5 1.1,-1.1l0,-2.7l2.7,0c0.6,-0.1 1.1,-0.6 1,-1.3c-0.1,-0.6 -0.5,-1 -1,-1l-2.5,0l0,-2.7z" class="st0"/>
  <path id="svg_90" fill="#05A677" clip-rule="evenodd" fill-rule="evenodd" d="m282.8,276.6c16.2,-8.6 20.3,10.1 14,25.6s-38.6,67.6 -40.3,88.3c-0.6,8 -2.1,7.1 -3.4,1.5c-6.3,-28 7.5,-103.6 29.7,-115.4z" class="st33"/>
  <path id="svg_91" fill="#4A9075" clip-rule="evenodd" fill-rule="evenodd" d="m248.6,205.6c-18.6,-16.7 -30.1,6.7 -26.9,29.2c3.2,22.6 28.7,102.1 24.1,130c-1.8,10.8 0.5,10.1 4,3.1c17.6,-34.9 24.3,-139.3 -1.2,-162.3z" class="st34"/>
  <path id="svg_92" fill="#1B7154" clip-rule="evenodd" fill-rule="evenodd" d="m245.4,372.6c0.4,1 1.3,0.5 2.5,-1.2c19.3,-64.4 -10.8,-160.6 -10.9,-160.9c-0.2,-0.5 -0.7,-0.8 -1.3,-0.7c-0.5,0.2 -0.8,0.7 -0.7,1.3c0.1,0.2 30.6,97.8 10.4,161.5z" class="st35"/>
  <path id="svg_93" fill="#05A677" clip-rule="evenodd" fill-rule="evenodd" d="m208.1,259.1c-18,-7.8 -20.8,12.5 -12.8,28.5s46.8,68.9 50.3,90.8c1.4,8.5 2.9,7.4 3.8,1.3c4.4,-30.4 -16.6,-109.8 -41.3,-120.6z" class="st33"/>
  <polygon id="svg_94" fill="#3B405F" clip-rule="evenodd" fill-rule="evenodd" points="233.4,372.6 267.9,372.6 276.9,380.7 269.5,409.1 250.6,409.1 231.7,409.1 224.4,380.7 " class="st5"/>
  <path id="svg_95" fill="#3B405F" d="m224.4,362l52.6,0c1.6,0 2.9,1.3 2.9,2.9l0,13c0,1.6 -1.3,2.9 -2.9,2.9l-52.6,0c-1.6,0 -2.9,-1.3 -2.9,-2.9l0,-13c0,-1.6 1.3,-2.9 2.9,-2.9z" class="st7"/>
  <polygon id="svg_96" fill="#101537" clip-rule="evenodd" fill-rule="evenodd" points="276.9,380.7 275.4,386.6 225.9,386.6 224.4,380.7 " class="st8"/>
  <text xml:space="preserve" text-anchor="start" font-family="Noto Sans JP" font-size="72" id="svg_97" y="169.18067" x="346.59724" stroke-width="0" stroke="#000" fill="#ffffff">403</text>
 </g>
</svg>